# xmcd
#
# Track frame offsets: 
#        150
#        15840
#        30417
#        44125
#        56786
#        73115
#        88520
#        103074
#        118642
#        135316
#        146906
#        163943
#        175725
#        192402
#        203943
#        217192
#
# Disc length: 3097 seconds
#
# Revision: 0
# Processed by: cddbd v1.5.2PL0 Copyright (c) Steve Scherf et al.
# Submitted via: ExactAudioCopy v0.95b4
#
DISCID=f00c1710
DTITLE=Various Artist - M-T-M #24
DYEAR=2007
DGENRE=Country
TTITLE0=Tommy Townsend - Southern Man
TTITLE1=Foster Martin Band - The Last Time
TTITLE2=Rachel Williams - Lonely At The Bottom
TTITLE3=JC Andersen - When The Tide Rolls In
TTITLE4=Jokers Wild Band - Please Catch Me
TTITLE5=Lisa Dudley - Yesterday Again
TTITLE6=Pete Schlegel - A Place To Say Goodnight
TTITLE7=Randy Archer - This Bus
TTITLE8=Bryan Burnett - Hickory Dickory Dock
TTITLE9=Sonny Marshall - Talkin' To The Dog
TTITLE10=Razzy Bailey - I Don't Want To Be A Stranger
TTITLE11=Jim O'baid - When I Remember How To Fly
TTITLE12=Ray William Roldan - The Legacy
TTITLE13=Jim Cristaldi - She Likes To Take It Slow
TTITLE14=Rachel Lilliott - It's My Time
TTITLE15=John Foster - I'd Come Runnin'
EXTD=
EXTT0=
EXTT1=
EXTT2=
EXTT3=
EXTT4=
EXTT5=
EXTT6=
EXTT7=
EXTT8=
EXTT9=
EXTT10=
EXTT11=
EXTT12=
EXTT13=
EXTT14=
EXTT15=
PLAYORDER=
